HIERARCHY
ROOT Hips
{
	OFFSET 0.000000 0.000000 0.000000
	CHANNELS 6 Xposition Yposition Zposition Zrotation Yrotation Xrotation 
	JOINT LHipJoint
	{
		OFFSET 0.000000 0.000000 0.000000
		CHANNELS 3 Zrotation Yrotation Xrotation
		JOINT LeftUpLeg
		{
			OFFSET 1.363060 -1.794630 0.839290
			CHANNELS 3 Zrotation Yrotation Xrotation
			JOINT LeftLeg
			{
				OFFSET 2.448110 -6.726130 0.000000
				CHANNELS 3 Zrotation Yrotation Xrotation
				JOINT LeftFoot
				{
					OFFSET 2.562200 -7.039590 0.000000
					CHANNELS 3 Zrotation Yrotation Xrotation
					JOINT LeftToeBase
					{
						OFFSET 0.157640 -0.433110 2.322550
						CHANNELS 3 Zrotation Yrotation Xrotation
						End Site
						{
							OFFSET 0.000000 0.000000 0.000000
						}
					}
				}
			}
		}
	}
	JOINT RHipJoint
	{
		OFFSET 0.000000 0.000000 0.000000
		CHANNELS 3 Zrotation Yrotation Xrotation
		JOINT RightUpLeg
		{
			OFFSET -1.305520 -1.794630 0.839290
			CHANNELS 3 Zrotation Yrotation Xrotation
			JOINT RightLeg
			{
				OFFSET -2.542530 -6.985550 0.000000
				CHANNELS 3 Zrotation Yrotation Xrotation
				JOINT RightFoot
				{
					OFFSET -2.568260 -7.056230 0.000000
					CHANNELS 3 Zrotation Yrotation Xrotation
					JOINT RightToeBase
					{
						OFFSET -0.164730 -0.452590 2.363150
						CHANNELS 3 Zrotation Yrotation Xrotation
						End Site
						{
							OFFSET 0.000000 0.000000 0.000000
						}
					}
				}
			}
		}
	}
	JOINT LowerBack
	{
		OFFSET 0.000000 0.000000 0.000000
		CHANNELS 3 Zrotation Yrotation Xrotation
		JOINT Spine
		{
			OFFSET 0.028270 2.035590 -0.193380
			CHANNELS 3 Zrotation Yrotation Xrotation
			JOINT Spine1
			{
				OFFSET 0.056720 2.048850 -0.042750
				CHANNELS 3 Zrotation Yrotation Xrotation
				JOINT Neck
				{
					OFFSET 0.000000 0.000000 0.000000
					CHANNELS 3 Zrotation Yrotation Xrotation
					JOINT Neck1
					{
						OFFSET -0.054170 1.746240 0.172020
						CHANNELS 3 Zrotation Yrotation Xrotation
						JOINT Head
						{
							OFFSET 0.104070 1.761360 -0.123970
							CHANNELS 3 Zrotation Yrotation Xrotation
							End Site
							{
								OFFSET 0.000000 0.000000 0.000000
							}
						}
					}
				}
				JOINT LeftShoulder
				{
					OFFSET 0.000000 0.000000 0.000000
					CHANNELS 3 Zrotation Yrotation Xrotation
					JOINT LeftArm
					{
						OFFSET 3.362410 1.200890 -0.311210
						CHANNELS 3 Zrotation Yrotation Xrotation
						JOINT LeftForeArm
						{
							OFFSET 4.983000 -0.000000 -0.000000
							CHANNELS 3 Zrotation Yrotation Xrotation
							JOINT LeftHand
							{
								OFFSET 3.483560 -0.000000 -0.000000
								CHANNELS 3 Zrotation Yrotation Xrotation
								JOINT LeftFingerBase
								{
									OFFSET 0.000000 0.000000 0.000000
									CHANNELS 3 Zrotation Yrotation Xrotation
									JOINT LeftHandIndex1
									{
										OFFSET 0.715260 -0.000000 -0.000000
										CHANNELS 3 Zrotation Yrotation Xrotation
										End Site
										{
											OFFSET 0.000000 0.000000 0.000000
										}
									}
								}
								JOINT LThumb
								{
									OFFSET 0.000000 0.000000 0.000000
									CHANNELS 3 Zrotation Yrotation Xrotation
									End Site
									{
										OFFSET 0.000000 0.000000 0.000000
									}
								}
							}
						}
					}
				}
				JOINT RightShoulder
				{
					OFFSET 0.000000 0.000000 0.000000
					CHANNELS 3 Zrotation Yrotation Xrotation
					JOINT RightArm
					{
						OFFSET -3.136600 1.374050 -0.404650
						CHANNELS 3 Zrotation Yrotation Xrotation
						JOINT RightForeArm
						{
							OFFSET -5.241900 -0.000000 -0.000000
							CHANNELS 3 Zrotation Yrotation Xrotation
							JOINT RightHand
							{
								OFFSET -3.444170 -0.000000 -0.000000
								CHANNELS 3 Zrotation Yrotation Xrotation
								JOINT RightFingerBase
								{
									OFFSET 0.000000 0.000000 0.000000
									CHANNELS 3 Zrotation Yrotation Xrotation
									JOINT RightHandIndex1
									{
										OFFSET -0.622530 -0.000000 -0.000000
										CHANNELS 3 Zrotation Yrotation Xrotation
										End Site
										{
											OFFSET 0.000000 0.000000 0.000000
										}
									}
								}
								JOINT RThumb
								{
									OFFSET 0.000000 0.000000 0.000000
									CHANNELS 3 Zrotation Yrotation Xrotation
									End Site
									{
										OFFSET 0.000000 0.000000 0.000000
									}
								}
							}
						}
					}
				}
			}
		}
	}
}
MOTION
Frames: 9
Frame Time: 0.008333
5.488119 16.423957 0.981011 5.110999 62.933154 25.519516 -10.693104 0.867485 1.487233 -2.208615 -4.031250 -37.824750 0.654230 3.208821 66.419398 2.861346 16.555812 -14.433026 -1.829200 0.000000 -11.689699 8.046943 -1.507721 3.398153 20.728127 13.973160 -20.546023 2.920552 -1.007958 32.582754 -1.958759 0.398184 -28.197757 -178.802500 0.000000 -20.371099 -0.543776 -1.423711 -5.309940 -0.729997 -1.602594 -3.981563 -6.589220 -1.569213 -1.011459 10.653640 -10.161667 -7.357276 -3.443293 -0.271647 0.095005 0.000000 0.000000 0.000000 2.978398 11.108892 -0.516650 -72.111882 19.278173 20.238644 179.963125 -72.779947 179.935014 11.222262 -4.614973 -0.503075 -0.192656 0.456759 -0.000000 0.000000 0.000000 0.000000 0.000000 0.000000 0.000000 12.009874 -3.622694 -0.709271 80.137237 16.127036 40.731310 179.442988 83.564677 179.994882 -3.485167 11.292478 -0.378926 0.152839 -0.706565 -0.000000 0.000000 0.000000 0.000000 0.000000 0.000000 0.000000 
5.691779 16.525101 1.092205 5.160329 62.061960 25.672550 -10.492791 0.764125 1.749878 -2.169310 -4.674102 -38.294303 0.476354 3.000800 63.853194 2.839184 16.130844 -14.478784 -1.789300 -0.000000 -11.677700 8.168597 -1.612236 3.337677 20.350337 13.378625 -18.911062 2.930637 -0.848469 30.509405 -1.691175 0.806843 -26.203792 -179.060000 -0.000000 -19.493099 -0.906745 -1.184886 -5.539927 -0.839314 -1.344597 -4.039835 -6.673341 -1.304924 -1.064914 10.591499 -9.937259 -7.267666 -3.393257 -0.269509 0.120498 0.000000 0.000000 0.000000 3.310180 11.407846 -0.528889 -71.420780 20.151787 20.725429 179.980413 -71.642351 179.939041 10.365248 -4.941971 -0.495004 -0.170679 0.466043 -0.000000 0.000000 0.000000 0.000000 0.000000 0.000000 0.000000 11.460605 -3.126845 -0.747036 81.283612 16.890275 41.432347 179.342079 82.446910 -179.998998 -2.709765 11.563519 -0.303382 0.139296 -0.735546 0.000000 0.000000 0.000000 0.000000 0.000000 0.000000 0.000000 
5.895456 16.633399 1.206636 5.240248 61.206827 25.782250 -10.285181 0.679382 1.991952 -2.164496 -5.194617 -38.562232 0.288851 2.772182 60.919932 2.825845 15.763037 -14.390375 -1.716700 0.000000 -11.838999 8.316260 -1.735504 3.237837 19.944970 12.593629 -17.249356 2.923225 -0.709473 28.408872 -1.394711 1.229642 -23.851096 -179.316100 -0.000000 -18.370800 -1.299351 -0.941223 -5.713290 -0.957324 -1.076469 -4.090887 -6.766851 -1.030083 -1.122983 10.553076 -9.726192 -7.171232 -3.351644 -0.268021 0.147035 0.000000 0.000000 0.000000 3.647627 11.686893 -0.544388 -70.723141 20.907433 21.199019 179.994041 -70.658106 179.942336 9.656721 -5.243764 -0.487130 -0.151714 0.473962 -0.000000 0.000000 0.000000 0.000000 0.000000 0.000000 0.000000 10.995437 -2.663683 -0.787329 82.325893 17.555978 42.037760 179.247392 81.425691 -179.994059 -2.124877 11.744601 -0.243229 0.129336 -0.761171 0.000000 0.000000 0.000000 0.000000 0.000000 0.000000 0.000000 
6.099073 16.747256 1.324105 5.355968 60.370163 25.845630 -10.072862 0.615786 2.211149 -2.209572 -5.589634 -38.610019 0.094223 2.523162 57.615477 2.820521 15.455222 -14.160248 -1.610800 -0.000001 -12.203299 8.490885 -1.876950 3.096177 19.503235 11.612883 -15.573613 2.897774 -0.597841 26.315620 -1.074668 1.681331 -21.142279 -179.559001 0.000000 -16.958700 -1.722191 -0.699412 -5.825725 -1.082973 -0.804766 -4.133980 -6.866312 -0.751565 -1.186180 10.539283 -9.533714 -7.066733 -3.318797 -0.267227 0.174992 0.000000 0.000000 0.000000 3.985817 11.928451 -0.563843 -70.040888 21.578273 21.619269 -179.998190 -69.826235 179.944790 9.128019 -5.501534 -0.481340 -0.136817 0.479751 -0.000000 0.000000 0.000000 0.000000 0.000000 0.000000 0.000000 10.623547 -2.242167 -0.825181 83.256888 18.141685 42.571553 179.161792 80.518863 -179.990417 -1.730507 11.845112 -0.201257 0.123519 -0.783243 -0.000000 0.000000 0.000000 0.000000 0.000000 0.000000 0.000000 
6.302821 16.864765 1.444172 5.498705 59.555905 25.856926 -9.860267 0.574405 2.407234 -2.310185 -5.853833 -38.436231 -0.105026 2.254550 53.945942 2.820307 15.199903 -13.779047 -1.468200 -0.000001 -12.797500 8.688925 -2.035350 2.916739 19.023334 10.455750 -13.906122 2.853218 -0.519365 24.268985 -0.743065 2.158079 -18.092259 -179.768700 -0.000001 -15.175900 -2.167669 -0.465669 -5.881409 -1.213308 -0.536674 -4.168790 -6.967206 -0.476789 -1.250471 10.548044 -9.365302 -6.958069 -3.293343 -0.266979 0.203419 0.000000 0.000000 0.000000 4.325576 12.136429 -0.587190 -69.396926 22.183821 21.967758 -179.997426 -69.139568 179.946399 8.787119 -5.704905 -0.479130 -0.126509 0.483087 -0.000000 0.000000 0.000000 0.000000 0.000000 0.000000 0.000000 10.340244 -1.869103 -0.859108 84.082141 18.664146 43.057820 179.086387 79.731744 -179.988001 -1.504165 11.875683 -0.176672 0.121734 -0.801714 -0.000000 0.000000 0.000000 0.000000 0.000000 0.000000 0.000000 
6.506851 16.983783 1.566375 5.660777 58.767485 25.814757 -9.652261 0.555606 2.580923 -2.469560 -5.983076 -38.048337 -0.307113 1.967392 49.927356 2.820657 14.983497 -13.237500 -1.285100 -0.000000 -13.633799 8.905309 -2.208624 2.705654 18.505480 9.151877 -12.273420 2.787906 -0.478788 22.313607 -0.415681 2.645443 -14.723473 -179.921999 -0.000000 -12.831900 -2.625357 -0.246320 -5.887323 -1.344873 -0.279908 -4.195927 -7.065684 -0.213713 -1.314266 10.575242 -9.226479 -6.848718 -3.273398 -0.267110 0.231594 0.000000 0.000000 0.000000 4.663918 12.308896 -0.614111 -68.807356 22.758668 22.227849 179.995793 -68.572234 179.947267 8.617817 -5.851488 -0.480998 -0.120491 0.483957 -0.000000 0.000000 0.000000 0.000000 0.000000 0.000000 0.000000 10.132883 -1.549435 -0.887764 84.815907 19.138335 43.519421 179.020153 79.059530 -179.986581 -1.407283 11.843747 -0.165677 0.123371 -0.816630 -0.000000 0.000000 0.000000 0.000000 0.000000 0.000000 0.000000 
6.711653 17.102039 1.690114 5.822531 58.009878 25.715102 -9.455487 0.558109 2.734317 -2.681634 -5.969830 -37.470843 -0.510737 1.663208 45.591167 2.815074 14.784468 -12.526781 -1.057000 -0.000000 -14.739700 9.130603 -2.394254 2.473473 17.961822 7.749107 -10.703997 2.700706 -0.477841 20.492066 -0.112380 3.111421 -11.072680 -179.997200 0.000001 -9.742201 -3.077208 -0.046401 -5.856220 -1.472735 -0.041771 -4.216358 -7.157762 0.030200 -1.373438 10.614429 -9.121977 -6.745379 -3.256297 -0.267350 0.257988 0.000000 0.000000 0.000000 5.000098 12.456993 -0.643724 -68.285931 23.324780 22.398904 179.981992 -68.094254 179.947548 8.588178 -5.946391 -0.486448 -0.118006 0.482744 -0.000000 0.000000 0.000000 0.000000 0.000000 0.000000 0.000000 9.980343 -1.286099 -0.912490 85.478071 19.576796 43.975877 178.960759 78.490478 -179.985809 -1.390665 11.755990 -0.163182 0.127360 -0.828094 -0.000000 0.000000 0.000000 0.000000 0.000000 0.000000 0.000000 
6.917603 17.217275 1.814625 5.967097 57.287693 25.556173 -9.276733 0.579745 2.869063 -2.940052 -5.806463 -36.734853 -0.716056 1.343900 40.984325 2.795719 14.575970 -11.646960 -0.783300 -0.000000 -16.101700 9.354991 -2.589288 2.229866 17.408247 6.294302 -9.222808 2.590125 -0.516133 18.842172 0.148021 3.515791 -7.168937 -179.982000 -0.000000 -5.531800 -3.504196 0.129463 -5.799283 -1.592088 0.170831 -4.231464 -7.241144 0.247870 -1.427448 10.658586 -9.055285 -6.652577 -3.239763 -0.267492 0.281724 0.000000 0.000000 0.000000 5.327175 12.581604 -0.675148 -67.838154 23.915668 22.477835 179.962088 -67.663859 179.947436 8.653936 -6.000046 -0.494085 -0.117817 0.480004 -0.000000 0.000000 0.000000 0.000000 0.000000 0.000000 0.000000 9.859837 -1.079875 -0.934110 86.090600 19.988620 44.442321 178.904375 78.004748 -179.985270 -1.400952 11.616983 -0.162994 0.132411 -0.836317 -0.000000 0.000000 0.000000 0.000000 0.000000 0.000000 0.000000 
7.125103 17.327285 1.939162 6.077393 56.605596 25.337218 -9.122778 0.616875 2.985724 -3.238015 -5.483779 -35.881647 -0.924223 1.012213 36.174997 2.753762 14.325596 -10.608101 -0.468300 0.000000 -17.699800 9.568368 -2.790800 1.984804 16.865389 4.836695 -7.847079 2.453643 -0.590903 17.387203 0.348546 3.804568 -3.016768 0.122000 -0.000000 -0.441700 -3.887258 0.277941 -5.726807 -1.698355 0.352399 -4.242410 -7.314148 0.433633 -1.475636 10.700636 -9.027335 -6.574429 -3.221645 -0.267336 0.302009 0.000000 0.000000 0.000000 5.637962 12.686485 -0.707027 -67.465442 24.554700 22.469129 179.937634 -67.247698 179.947124 8.767424 -6.026292 -0.502418 -0.118601 0.476382 0.000000 0.000000 0.000000 0.000000 0.000000 0.000000 0.000000 9.748979 -0.929137 -0.954381 86.672259 20.379819 44.926674 178.847408 77.583469 -179.984550 -1.387376 11.433735 -0.159524 0.137135 -0.841571 -0.000000 0.000000 0.000000 0.000000 0.000000 0.000000 0.000000 
